<?xml version="1.0" encoding="iso-8859-1"?>
<svg version="1.1" id="Layer_1" xmlns="http://www.w3.org/2000/svg" x="0px" y="0px"
	 viewBox="0 0 500 500" style="enable-background:new 0 0 500 500;" xml:space="preserve">
<g>
</g>
	<g>
	<path style="fill:#FF4433;" d="M250,25.977c-98.983,0-179.219,80.236-179.219,179.219c0,49.473,20.046,94.269,52.466,126.699
		c32.43,32.448,108.831,79.403,113.311,128.688c0.672,7.39,6.022,13.441,13.441,13.441c7.42,0,12.77-6.052,13.441-13.441
		c4.48-49.285,80.881-96.24,113.311-128.688c32.421-32.43,52.466-77.225,52.466-126.699C429.219,106.213,348.983,25.977,250,25.977z
		"/>
		<path style="fill:#FFFFFF;" d="M250.001,267.926c34.643,0,62.726-28.084,62.726-62.727c0-34.643-28.083-62.727-62.726-62.727
		c-34.643,0-62.727,28.084-62.727,62.727C187.274,239.842,215.358,267.926,250.001,267.926z"/>
</g>
</svg>
