<svg width="86" height="82" viewBox="0 0 86 82" fill="none" xmlns="http://www.w3.org/2000/svg">
<g id="g10">
<g id="g12">
<path id="path14" d="M73.4733 41.0006C73.4733 57.5975 59.9788 71.0519 43.3321 71.0519C26.6858 71.0519 13.1909 57.5975 13.1909 41.0006C13.1909 24.404 26.6858 10.9496 43.3321 10.9496C59.9788 10.9496 73.4733 24.404 73.4733 41.0006Z" fill="#0E3869"/>
<path id="path16" d="M43.3321 6.96914C34.2142 6.96914 25.6431 10.5093 19.1961 16.9368C12.749 23.3644 9.19873 31.9104 9.19873 41.0007C9.19873 50.0912 12.749 58.637 19.1961 65.0648C25.6431 71.4923 34.2142 75.0322 43.3321 75.0322C52.4496 75.0322 61.0215 71.4923 67.4683 65.0648C73.9154 58.637 77.4656 50.0912 77.4656 41.0007C77.4656 31.9104 73.9154 23.3644 67.4683 16.9368C61.0215 10.5093 52.4496 6.96914 43.3321 6.96914ZM43.3321 10.9496C59.9787 10.9496 73.4732 24.4041 73.4732 41.0007C73.4732 57.5975 59.9787 71.0519 43.3321 71.0519C26.6857 71.0519 13.1908 57.5975 13.1908 41.0007C13.1908 24.4041 26.6857 10.9496 43.3321 10.9496Z" fill="#C5181D"/>
<path id="path18" d="M43.3319 3.18575C22.4178 3.18575 5.4023 20.1494 5.4023 41.0006C5.4023 61.8524 22.4178 78.8169 43.3319 78.8169C64.2465 78.8169 81.2613 61.8524 81.2613 41.0006C81.2613 20.1494 64.2465 3.18575 43.3319 3.18575ZM43.3319 82.0012C20.6566 82.0012 2.2085 63.6082 2.2085 41.0006C2.2085 18.3935 20.6566 0.00118256 43.3319 0.00118256C66.0076 0.00118256 84.4551 18.3935 84.4551 41.0006C84.4551 63.6082 66.0076 82.0012 43.3319 82.0012Z" fill="#C5181D"/>
<path id="path20" d="M72.4234 33.1107L66.3439 33.1057L66.3087 30.5792L64.9124 31.8604L63.5512 30.6505V33.1414L49.9767 33.1186L48.8085 27.1275L47.6466 28.3374L43.0519 19.2508L43.0493 19.2589L43.0459 19.2508L38.4513 28.3374L37.2893 27.1275L36.1219 33.1186L22.5473 33.1414V30.6505L21.1862 31.8604L19.7893 30.5792L19.7541 33.1057L14.2324 33.1107L14.5246 32.1342H18.8402V28.2082L21.1163 30.4853L23.4386 28.2082V32.1342H35.2828L36.7724 24.6364L38.2093 26.5475L42.3896 18.6402L41.2403 19.2508L41.5851 17.2191L40.1245 15.7803L42.1431 15.4834L43.0459 13.6346L43.9488 15.4834L45.9679 15.7803L44.5068 17.2191L44.8516 19.2508L43.715 18.6469L47.8913 26.5475L49.3285 24.6364L50.8179 32.1342H62.6622V28.2082L64.9845 30.4853L67.2606 28.2082V32.1342H72.1395L72.4234 33.1107Z" fill="white"/>
<path id="path22" d="M3.86581 63.6439C3.86581 63.6439 27.8708 63.8288 28.8412 63.724C29.8122 63.6198 31.0931 63.1996 32.3041 61.3758C33.5151 59.553 68.1898 4.17912 68.1898 4.17912L71.8087 6.55792L29.6666 72.1593L0.857422 73.6158L3.86581 63.6439Z" fill="white"/>
<path id="path24" d="M67.7643 2.70145C67.4572 2.80228 67.18 3.01235 66.9879 3.31904C66.6414 3.87288 32.3107 58.6955 31.1245 60.4809C30.5642 61.324 29.9662 61.8408 29.2946 62.0612C29.1129 62.1205 28.9202 62.1606 28.7064 62.1848C27.7199 62.2533 16.3537 62.1923 6.89992 62.1199C3.44919 62.1199 2.01817 64.7299 1.87016 65.2203L0.325256 70.3421C-1.03534 74.4571 2.22778 75.0132 3.47228 75.0132L29.6929 73.534C29.8447 73.5362 29.9926 73.5126 30.134 73.4665C30.4422 73.365 30.7146 73.1549 30.9022 72.863L73.0004 7.43266C73.2249 7.08356 73.3057 6.65162 73.2238 6.2368C73.1412 5.82311 72.9035 5.46305 72.5657 5.2409L68.9477 2.8621C68.5801 2.62056 68.1494 2.57535 67.7643 2.70145ZM68.1896 4.17901L71.8085 6.55782L29.6664 72.1592L3.12127 73.4747C3.12127 73.4747 0.857281 73.6157 1.55656 71.2993C2.1194 69.4341 3.15045 66.0133 3.15045 66.0133C3.15045 66.0133 3.86567 63.6438 6.61823 63.6604C10.8744 63.6848 27.9796 63.8166 28.8411 63.7239C29.1123 63.6944 29.4073 63.641 29.7185 63.539C30.5219 63.2756 31.431 62.6903 32.3039 61.3757C33.5149 59.5529 68.1896 4.17901 68.1896 4.17901Z" fill="#0E3869"/>
<path id="path26" d="M71.8085 6.56766L69.1209 10.7877L65.6372 8.27299L68.2248 4.17903L71.8085 6.56766Z" fill="#0E3869"/>
<path id="path28" d="M11.2191 63.7181L8.47369 73.2159C8.47369 73.2159 4.03593 73.4524 3.29649 73.5032C2.20494 73.5784 1.01985 73.0765 1.55682 71.2994C2.07399 69.5873 2.86406 66.917 3.15071 66.0135C3.43733 65.1103 4.44749 63.6462 6.61849 63.6605C8.7895 63.674 11.2191 63.7181 11.2191 63.7181Z" fill="#0E3869"/>
<path id="path30" d="M81.5027 63.6439C81.5027 63.6439 57.4977 63.8288 56.5264 63.724C55.556 63.6198 54.2751 63.1996 53.0641 61.3758C51.8534 59.553 17.1787 4.17912 17.1787 4.17912L13.5596 6.55792L55.7013 72.1593L84.5109 73.6158L81.5027 63.6439Z" fill="white"/>
<path id="path32" d="M17.6035 2.70145C17.2184 2.57535 16.7876 2.62056 16.4201 2.8621L12.8021 5.2409C12.4643 5.46305 12.2266 5.82311 12.1441 6.2368C12.0621 6.65162 12.143 7.08356 12.3674 7.43266L54.4651 72.863C54.6527 73.1549 54.9256 73.365 55.2332 73.4665C55.3746 73.5126 55.5231 73.5362 55.6744 73.534L81.8955 75.0132C83.1394 75.0132 86.4026 74.4571 85.042 70.3421L83.4972 65.2203C83.349 64.7299 81.9186 62.1199 78.4673 62.1199C69.0137 62.1923 57.6479 62.2533 56.6614 62.1848C56.4473 62.1606 56.2549 62.1205 56.0732 62.0612C55.4014 61.8408 54.8028 61.324 54.2434 60.4809C53.0572 58.6955 18.7264 3.87288 18.3798 3.31904C18.1878 3.01235 17.9105 2.80228 17.6035 2.70145ZM17.1782 4.17901C17.1782 4.17901 51.8529 59.5529 53.0636 61.3757C53.9369 62.6903 54.8459 63.2756 55.6485 63.539C55.96 63.641 56.2555 63.6944 56.5259 63.7239C57.3882 63.8166 74.4934 63.6848 78.7495 63.6604C81.5022 63.6438 82.2169 66.0133 82.2169 66.0133C82.2169 66.0133 83.2479 69.4341 83.8113 71.2993C84.5104 73.6157 82.2465 73.4747 82.2465 73.4747L55.7009 72.1592L13.5591 6.55782L17.1782 4.17901Z" fill="#0E3869"/>
<path id="path34" d="M13.5596 6.56766L16.2472 10.7877L19.731 8.27299L17.1435 4.17903L13.5596 6.56766Z" fill="#0E3869"/>
<path id="path36" d="M74.1484 63.7181L76.8938 73.2159C76.8938 73.2159 81.3316 73.4524 82.0711 73.5032C83.1626 73.5784 84.3483 73.0765 83.8114 71.2994C83.2942 69.5873 82.5034 66.917 82.217 66.0135C81.9302 65.1103 80.9206 63.6462 78.7496 63.6605C76.5786 63.674 74.1484 63.7181 74.1484 63.7181Z" fill="#0E3869"/>
<path id="path38" d="M34.6353 51.7257L30.3468 54.8091H29.0423V59.296H17.8582V54.8091H16.5545L12.2661 51.7257V46.7979L16.5545 43.7147H17.8582V39.475H29.0423V43.7147H30.3468L34.6353 46.7979V51.7257Z" fill="#C5181D"/>
<path id="path40" d="M29.8735 50.3409V48.2213L28.4251 47.087H24.9872V51.5025H28.4251L29.8735 50.3409ZM21.9133 51.5025V47.087H18.4758L17.0277 48.2213V50.3409L18.4758 51.5025H21.9133ZM33.0916 51.2217L29.7631 53.5898H25.2689V55.2962H27.4988V58.0769H19.402V55.2962H21.6316V53.5898H17.1378L13.8097 51.2217V47.3678L17.1378 44.9725H21.6316V43.5134H19.402V40.7333H27.4988V43.5134H25.2689V44.9725H29.7631L33.0916 47.3678V51.2217ZM34.2578 51.6342V46.9547L30.2093 44.0367H28.6656V39.7969H18.2356V44.0367H16.6918L12.6433 46.9547V51.6342L16.6918 54.5531H18.2356V59.0127H28.6656V54.5531H30.2093L34.2578 51.6342ZM34.6353 51.7446L30.3468 54.8283H29.0423V59.3156H17.8582V54.8283H16.5545L12.2661 51.7446V46.8171L16.5545 43.7339H17.8582V39.4942H29.0423V43.7339H30.3468L34.6353 46.8171V51.7446Z" fill="white"/>
<path id="path42" d="M20.515 50.2701H19.1078L18.4267 49.7626V48.7929L19.1159 48.3191H20.515V50.2701ZM27.7935 50.2701H26.3867V48.3191H27.7858L28.4743 48.7929V49.7626L27.7935 50.2701ZM18.6069 50.9563H21.3009V47.6332H18.6042L17.6405 48.3382V50.2263L18.6069 50.9563ZM25.6 50.9563H28.294L29.2613 50.2263V48.3382L28.2974 47.6332H25.6V50.9563ZM18.5668 58.7471H28.3343V54.2874H30.0827L33.9273 51.5163V47.0732L30.0827 44.3023H28.3343V40.0626H18.5668V44.3023H16.8185L12.9738 47.0732V51.5163L16.8185 54.2874H18.5668V58.7471ZM29.3734 59.5809H17.5275V55.094H16.4284L11.9346 51.8637V46.6986L16.4284 43.4685H17.5275V39.2288H29.3734V43.4685H30.4735L34.9662 46.6986V51.8637L30.4735 55.094H29.3734V59.5809Z" fill="#0E3869"/>
<path id="path44" d="M72.8121 59.2534H64.6949V53.9956H66.1583V49.7281L64.2256 53.1143H61.6847L59.752 49.7281V53.9956H61.2154V59.2534H53.0981V53.9956H54.4784V44.6902H53.0981V39.4321H59.5312L62.9551 45.5437L66.3788 39.4321H72.8121V44.6902H71.4318V53.9956H72.8121V59.2534Z" fill="#C5181D"/>
<path id="path46" d="M71.5972 58.0148H65.9371V55.2344H67.3729V45.0482L63.5075 51.8757H62.4027L58.5371 45.0482V55.2344H59.9731V58.0148H54.3128V55.2344H55.6931V43.4513H54.3128V40.6715H58.7858L62.9551 48.0491L67.1245 40.6715H71.5972V43.4513H70.2169V55.2344H71.5972V58.0148ZM72.5358 58.9506V54.2986H71.1561V44.3877H72.5358V39.7351H66.5721L62.9551 46.1222L59.3382 39.7351H53.3742V44.3877H54.7545V54.2986H53.3742V58.9506H60.9117V54.2986H59.4762V48.6266L61.8509 52.8121H64.0599L66.4343 48.6266V54.2986H64.9985V58.9506H72.5358ZM72.8121 59.2534H64.6949V53.9956H66.1583V49.7281L64.2256 53.1148H61.6847L59.752 49.7281V53.9956H61.2154V59.2534H53.0981V53.9956H54.4784V44.6907H53.0981V39.4321H59.5312L62.9551 45.5442L66.3788 39.4321H72.8121V44.6907H71.4318V53.9956H72.8121V59.2534Z" fill="white"/>
<path id="path48" d="M65.2646 58.6851H72.2695V54.5639H70.8898V44.1222H72.2695V40.001H66.7275L62.955 46.6616L59.1823 40.001H53.6397V44.1222H55.0209V54.5639H53.6397V58.6851H60.6454V54.5639H59.2099V47.6176L62.006 52.5457H63.904L66.7007 47.6182V54.5639H65.2646V58.6851ZM73.0782 59.5187H64.4283V53.7301H65.892V50.7311L64.3798 53.3801H61.5299L60.0187 50.7311V53.7301H61.4815V59.5187H52.8315V53.7301H54.2121V44.956H52.8315V39.1665H59.6874L62.955 44.9993L66.2224 39.1665H73.0782V44.956H71.6979V53.7301H73.0782V59.5187Z" fill="#0E3869"/>
<path id="path50" d="M51.5186 59.418H43.2335V54.106L42.5915 53.271L41.9498 54.106V59.418H33.6641V54.106H35.6173L39.4393 49.2658L35.8407 44.7042H33.8874V39.3916H42.1726V44.7042L42.5915 45.2325L43.0095 44.7042V39.3916H51.2958V44.7042H49.3428L45.7439 49.2658L49.5659 54.106H51.5186V59.418Z" fill="#C5181D"/>
<path id="path52" d="M50.2637 58.1476H44.4602V55.338H45.8L42.5915 51.2491L39.3833 55.338H40.7224V58.1476H34.9196V55.338H36.2308L41.0013 49.2463L36.4542 43.4333H35.143V40.6242H40.9177V43.4333H39.6067L42.5915 47.2158L45.5766 43.4333H44.265V40.6242H50.0403V43.4333H48.7293L44.1819 49.2463L48.9527 55.338H50.2637V58.1476ZM51.2116 59.0926V54.3923H49.3989L45.3814 49.2463L49.1755 44.3789H50.9887V39.6783H43.2889V44.3789H43.6242L42.5915 45.6863L41.5594 44.3789H41.8943V39.6783H34.1945V44.3789H36.008L39.8019 49.2463L35.7846 54.3923H33.9711V59.0926H41.6709V54.3923H41.3365L42.5915 52.8064L43.847 54.3923H43.5118V59.0926H51.2116ZM51.5186 59.3988H43.2335V54.0868L42.5915 53.2518L41.9498 54.0868V59.3988H33.6641V54.0868H35.6173L39.4393 49.2463L35.8407 44.685H33.8874V39.3725H42.1726V44.685L42.5915 45.2133L43.0101 44.685V39.3725H51.2958V44.685H49.3431L45.7439 49.2463L49.5659 54.0868H51.5186V59.3988Z" fill="white"/>
<path id="path54" d="M43.7813 58.8244H50.9431V54.6611H49.2673L45.0408 49.2463L49.0439 44.1106H50.7197V39.9465H43.5579V44.1106H44.1782L42.5914 46.1198L41.0047 44.1106H41.6252V39.9465H34.4635V44.1106H36.1393L40.1424 49.2463L35.9159 54.6611H34.2401V58.8244H41.4019V54.6611H40.7807L42.5914 52.3735L44.4025 54.6611H43.7813V58.8244ZM51.7876 59.667H42.9638V54.1777L42.5914 53.6927L42.2193 54.1771V59.667H33.395V53.818H35.4863L39.0965 49.2457L35.7097 44.9532H33.6184V39.1039H42.4421V44.5917L42.5914 44.7805L42.741 44.5917V39.1039H51.5642V44.9532H49.4735L46.0867 49.2457L49.6963 53.818H51.7876V59.667Z" fill="#0E3869"/>
<path id="path56" d="M26.3862 50.27V48.319H27.7853L28.4738 48.7927V49.7625L27.793 50.27H26.3862Z" fill="#0E3869"/>
<path id="path58" d="M20.5158 50.27V48.319H19.1167L18.4282 48.7927V49.7625L19.109 50.27H20.5158Z" fill="#0E3869"/>
</g>
</g>
</svg>
